<svg width="26" height="26" viewBox="0 0 26 26" fill="none"  stroke="black" xmlns="http://www.w3.org/2000/svg">
<path d="M2.23858 21.9846C2.1636 22.1292 2.08393 22.2738 1.99957 22.4184H1.98552C1.98083 22.4291 1.97614 22.4345 1.97146 22.4452C1.90116 22.5684 1.82618 22.6916 1.74651 22.8148C1.58249 23.0719 1.4091 23.3129 1.21696 23.5378C1.00608 23.7842 0.940468 24.1484 1.05763 24.4698C1.17478 24.7911 1.44659 25 1.7512 25C1.9902 25 2.2292 24.9839 2.46821 24.9572C2.47758 24.9572 2.49164 24.9518 2.50101 24.9518C2.71189 24.9304 2.91341 24.8929 3.1196 24.85C3.15709 24.8393 3.19458 24.834 3.23207 24.8233C4.06624 24.6358 4.87228 24.3144 5.57992 23.9609C6.65777 23.4254 7.56691 22.788 8.12459 22.322C9.61483 22.938 11.2644 23.2807 13.003 23.2807C19.6295 23.2807 25 18.2944 25 12.1404C25 5.98639 19.6295 1 13.003 1C6.37659 1 1.00608 5.98639 1.00608 12.1404C1.00608 14.5559 1.83555 16.7893 3.24145 18.6157C3.15241 19.9279 2.70721 21.0955 2.23858 21.9846Z" />
</svg>
