<svg width="26" height="26" viewBox="0 0 26 26" fill="none" xmlns="http://www.w3.org/2000/svg">
<path d="M7.66667 9.47059H7.68M13 9.47059H13.0133M18.3333 9.47059H18.3467M9 17.9412H3.66667C2.95942 17.9412 2.28115 17.6437 1.78105 17.1142C1.28095 16.5847 1 15.8665 1 15.1176V3.82353C1 3.07468 1.28095 2.35651 1.78105 1.82699C2.28115 1.29748 2.95942 1 3.66667 1H22.3333C23.0406 1 23.7189 1.29748 24.219 1.82699C24.719 2.35651 25 3.07468 25 3.82353V15.1176C25 15.8665 24.719 16.5847 24.219 17.1142C23.7189 17.6437 23.0406 17.9412 22.3333 17.9412H15.6667L9 25V17.9412Z" stroke="black" stroke-linecap="round" stroke-linejoin="round"/>
</svg>
