<svg width="22" height="16" viewBox="0 0 22 16" fill="none" xmlns="http://www.w3.org/2000/svg">
<path d="M20.9145 7.66391C20.052 3.76485 18.7728 1.27766 16.7225 0.671564C16.3254 0.555725 15.9136 0.497939 15.5 0.500001C14.2395 0.500001 13.2448 1.25 11 1.25C8.75515 1.25 7.75859 0.500001 6.49999 0.500001C6.06909 0.49777 5.63998 0.555512 5.22499 0.671564C3.17187 1.27766 1.90343 3.76719 1.03109 7.66391C0.140462 11.6441 0.301712 14.7889 2.04265 15.3927C3.2614 15.8145 4.35124 14.9422 5.38343 13.6583C6.55531 12.1958 7.99859 11.7458 11 11.7458C14.0014 11.7458 15.3884 12.1958 16.5622 13.6583C17.5934 14.9431 18.7236 15.8047 19.91 15.4002C21.8328 14.7434 21.8056 11.6909 20.9145 7.66391Z" stroke="black" stroke-miterlimit="10"/>
<path d="M12.6875 7.4375C13.2053 7.4375 13.625 7.01777 13.625 6.5C13.625 5.98223 13.2053 5.5625 12.6875 5.5625C12.1697 5.5625 11.75 5.98223 11.75 6.5C11.75 7.01777 12.1697 7.4375 12.6875 7.4375Z" fill="black"/>
<path d="M14.75 9.5C14.5645 9.5 14.3831 9.44496 14.2289 9.34184C14.0747 9.23872 13.9545 9.09217 13.8836 8.92072C13.8128 8.74928 13.7943 8.56066 13.8307 8.37874C13.8671 8.19682 13.9566 8.02978 14.0879 7.89876C14.2193 7.76774 14.3865 7.67864 14.5685 7.64273C14.7506 7.60682 14.9391 7.62572 15.1104 7.69704C15.2817 7.76835 15.4279 7.88888 15.5306 8.04336C15.6334 8.19784 15.688 8.37932 15.6875 8.56484C15.6869 8.81308 15.5878 9.05093 15.4121 9.22624C15.2363 9.40155 14.9982 9.5 14.75 9.5Z" fill="black"/>
<path d="M14.75 5.375C15.2678 5.375 15.6875 4.95527 15.6875 4.4375C15.6875 3.91973 15.2678 3.5 14.75 3.5C14.2322 3.5 13.8125 3.91973 13.8125 4.4375C13.8125 4.95527 14.2322 5.375 14.75 5.375Z" fill="black"/>
<path d="M16.8125 7.4375C17.3303 7.4375 17.75 7.01777 17.75 6.5C17.75 5.98223 17.3303 5.5625 16.8125 5.5625C16.2947 5.5625 15.875 5.98223 15.875 6.5C15.875 7.01777 16.2947 7.4375 16.8125 7.4375Z" fill="black"/>
<path d="M6.5 4.25V8.75M8.75 6.5H4.25" stroke="black" stroke-linecap="round" stroke-linejoin="round"/>
</svg>
