<svg width="25" height="24" viewBox="0 0 25 24" fill="none" xmlns="http://www.w3.org/2000/svg">
<path d="M24.3536 4.14644L20.3536 0.146445C20.3071 0.0999568 20.252 0.0630774 20.1913 0.0379152C20.1306 0.0127531 20.0655 -0.000198364 19.9998 -0.000198364C19.9341 -0.000198364 19.869 0.0127531 19.8083 0.0379152C19.7476 0.0630774 19.6925 0.0999568 19.6461 0.146445L7.64605 12.1464C7.59963 12.1929 7.56283 12.2481 7.53773 12.3088C7.51264 12.3695 7.49975 12.4345 7.4998 12.5002V16.5002C7.4998 16.6328 7.55248 16.76 7.64625 16.8537C7.74002 16.9475 7.86719 17.0002 7.9998 17.0002H11.9998C12.0655 17.0002 12.1305 16.9874 12.1912 16.9623C12.2519 16.9372 12.3071 16.9004 12.3536 16.8539L24.3536 4.85395C24.4 4.80751 24.4369 4.75236 24.4621 4.69167C24.4872 4.63097 24.5002 4.5659 24.5002 4.5002C24.5002 4.43449 24.4872 4.36942 24.4621 4.30872C24.4369 4.24803 24.4 4.19288 24.3536 4.14644ZM11.7923 16.0002H8.4998V12.7077L16.9998 4.2077L20.2923 7.5002L11.7923 16.0002ZM20.9998 6.79269L17.7073 3.5002L19.9998 1.2077L23.2923 4.5002L20.9998 6.79269ZM23.4998 11.5002V22.5002C23.4998 22.898 23.3418 23.2795 23.0605 23.5609C22.7792 23.8422 22.3976 24.0002 21.9998 24.0002H1.9998C1.60198 24.0002 1.22045 23.8422 0.939141 23.5609C0.657837 23.2795 0.499802 22.898 0.499802 22.5002V2.5002C0.499802 2.10237 0.657837 1.72084 0.939141 1.43953C1.22045 1.15823 1.60198 1.0002 1.9998 1.0002H12.9998C13.1324 1.0002 13.2596 1.05287 13.3534 1.14664C13.4471 1.24041 13.4998 1.36759 13.4998 1.5002C13.4998 1.6328 13.4471 1.75998 13.3534 1.85375C13.2596 1.94752 13.1324 2.0002 12.9998 2.0002H1.9998C1.86719 2.0002 1.74002 2.05287 1.64625 2.14664C1.55248 2.24041 1.4998 2.36759 1.4998 2.5002V22.5002C1.4998 22.6328 1.55248 22.76 1.64625 22.8537C1.74002 22.9475 1.86719 23.0002 1.9998 23.0002H21.9998C22.1324 23.0002 22.2596 22.9475 22.3534 22.8537C22.4471 22.76 22.4998 22.6328 22.4998 22.5002V11.5002C22.4998 11.3676 22.5525 11.2404 22.6462 11.1466C22.74 11.0529 22.8672 11.0002 22.9998 11.0002C23.1324 11.0002 23.2596 11.0529 23.3534 11.1466C23.4471 11.2404 23.4998 11.3676 23.4998 11.5002Z" fill="black"/>
</svg>
