<svg width="24" height="24" viewBox="0 0 24 24" fill="none" xmlns="http://www.w3.org/2000/svg">
<path fill-rule="evenodd" clip-rule="evenodd" d="M18.2222 2.66667C18.2222 1.95942 18.4095 1.28115 18.7429 0.781048C19.0763 0.280951 19.5285 0 20 0C20.4715 0 20.9237 0.280951 21.2571 0.781048C21.5905 1.28115 21.7778 1.95942 21.7778 2.66667C21.7778 3.37391 21.5905 4.05219 21.2571 4.55229C20.9237 5.05238 20.4715 5.33333 20 5.33333C19.5285 5.33333 19.0763 5.05238 18.7429 4.55229C18.4095 4.05219 18.2222 3.37391 18.2222 2.66667ZM18.2222 6.66667C17.6329 6.66667 17.0676 7.01786 16.6509 7.64298C16.2341 8.2681 16 9.11594 16 10C16 10.5304 16.1405 11.0391 16.3905 11.4142C16.6406 11.7893 16.9797 12 17.3333 12H22.6667C23.0203 12 23.3594 11.7893 23.6095 11.4142C23.8595 11.0391 24 10.5304 24 10C24 9.11594 23.7659 8.2681 23.3491 7.64298C22.9324 7.01786 22.3671 6.66667 21.7778 6.66667H18.2222Z" fill="black"/>
<path fill-rule="evenodd" clip-rule="evenodd" d="M2.22222 2.66667C2.22222 1.95942 2.40952 1.28115 2.74292 0.781048C3.07632 0.280951 3.5285 0 4 0C4.4715 0 4.92368 0.280951 5.25708 0.781048C5.59048 1.28115 5.77778 1.95942 5.77778 2.66667C5.77778 3.37391 5.59048 4.05219 5.25708 4.55229C4.92368 5.05238 4.4715 5.33333 4 5.33333C3.5285 5.33333 3.07632 5.05238 2.74292 4.55229C2.40952 4.05219 2.22222 3.37391 2.22222 2.66667ZM2.22222 6.66667C1.63285 6.66667 1.06762 7.01786 0.650874 7.64298C0.234126 8.2681 0 9.11594 0 10C0 10.5304 0.140476 11.0391 0.390524 11.4142C0.640573 11.7893 0.979711 12 1.33333 12H6.66667C7.02029 12 7.35943 11.7893 7.60948 11.4142C7.85952 11.0391 8 10.5304 8 10C8 9.11594 7.76587 8.2681 7.34913 7.64298C6.93238 7.01786 6.36715 6.66667 5.77778 6.66667H2.22222Z" fill="black"/>
<path fill-rule="evenodd" clip-rule="evenodd" d="M10.2222 14.6667C10.2222 13.9594 10.4095 13.2811 10.7429 12.781C11.0763 12.281 11.5285 12 12 12C12.4715 12 12.9237 12.281 13.2571 12.781C13.5905 13.2811 13.7778 13.9594 13.7778 14.6667C13.7778 15.3739 13.5905 16.0522 13.2571 16.5523C12.9237 17.0524 12.4715 17.3333 12 17.3333C11.5285 17.3333 11.0763 17.0524 10.7429 16.5523C10.4095 16.0522 10.2222 15.3739 10.2222 14.6667ZM10.2222 18.6667C9.63285 18.6667 9.06762 19.0179 8.65087 19.643C8.23413 20.2681 8 21.1159 8 22C8 22.5304 8.14048 23.0391 8.39052 23.4142C8.64057 23.7893 8.97971 24 9.33333 24H14.6667C15.0203 24 15.3594 23.7893 15.6095 23.4142C15.8595 23.0391 16 22.5304 16 22C16 21.1159 15.7659 20.2681 15.3491 19.643C14.9324 19.0179 14.3671 18.6667 13.7778 18.6667H10.2222Z" fill="black"/>
</svg>
