<svg width="32" height="32" viewBox="0 0 32 32"  fill="white" stroke="white" xmlns="http://www.w3.org/2000/svg">
<path d="M30.998 16.5L30.9971 16.5C30.9313 16.5004 30.8661 16.4878 30.8052 16.4629C30.7445 16.4381 30.6894 16.4017 30.6428 16.3557C30.6426 16.3554 30.6424 16.3552 30.6421 16.355L16.3537 2.05658L16 1.70265L15.6463 2.05658L1.37242 16.3405C1.27865 16.4157 1.16075 16.4547 1.04027 16.4501C0.914433 16.4452 0.795063 16.3931 0.706018 16.304C0.616971 16.215 0.564804 16.0956 0.559943 15.9698C0.555289 15.8493 0.594338 15.7313 0.66958 15.6376L15.6525 0.654613C15.6527 0.654453 15.6528 0.654293 15.653 0.654133C15.7466 0.561308 15.8732 0.509216 16.005 0.509216C16.1369 0.509216 16.2635 0.561347 16.3571 0.654239C16.3573 0.654364 16.3574 0.654488 16.3575 0.654613L31.353 15.65C31.3535 15.6505 31.3539 15.651 31.3544 15.6515C31.4224 15.7215 31.4685 15.8098 31.4869 15.9056C31.5055 16.0022 31.4951 16.102 31.4573 16.1927C31.4194 16.2834 31.3556 16.3609 31.2739 16.4156C31.1922 16.4702 31.0962 16.4996 30.998 16.5ZM13 21.5H12.5V22V31.5H6.00003C5.6022 31.5 5.22067 31.342 4.93937 31.0607C4.65806 30.7794 4.50003 30.3978 4.50003 30V18.0366L16.0011 6.49726L27.5 17.9675V30C27.5 30.3978 27.342 30.7794 27.0607 31.0607C26.7794 31.342 26.3979 31.5 26 31.5H19.5V22V21.5H19H13Z"/>
</svg>
