<svg width="24" height="24" viewBox="0 0 24 24" fill="none" xmlns="http://www.w3.org/2000/svg">
<path d="M10.5342 4.46512C11.6273 4.46512 12.5217 3.46047 12.5217 2.23256C12.5217 1.00465 11.6273 0 10.5342 0C9.44099 0 8.54658 1.00465 8.54658 2.23256C8.54658 3.46047 9.44099 4.46512 10.5342 4.46512ZM6.95652 19.9814L7.95031 15.0698L10.0373 17.3023V24H12.0248V15.6279L9.93789 13.3953L10.5342 10.0465C11.8261 11.7209 13.8137 12.8372 16 12.8372V10.6047C14.1118 10.6047 12.5217 9.48837 11.7267 7.92558L10.7329 6.13953C10.3354 5.46977 9.73913 5.02326 9.04348 5.02326C8.74534 5.02326 8.54658 5.13488 8.24845 5.13488L3.08074 7.5907V12.8372H5.06832V9.04186L6.85714 8.26047L5.26708 17.3023L0.397515 16.186L0 18.4186L6.95652 19.9814Z" fill="black"/>
<path d="M18.5342 4.46512C19.6273 4.46512 20.5217 3.46047 20.5217 2.23256C20.5217 1.00465 19.6273 0 18.5342 0C17.441 0 16.5466 1.00465 16.5466 2.23256C16.5466 3.46047 17.441 4.46512 18.5342 4.46512ZM14.9565 19.9814L15.9503 15.0698L18.0373 17.3023V24H20.0248V15.6279L17.9379 13.3953L18.5342 10.0465C19.8261 11.7209 21.8137 12.8372 24 12.8372V10.6047C22.1118 10.6047 20.5217 9.48837 19.7267 7.92558L18.7329 6.13953C18.3354 5.46977 17.7391 5.02326 17.0435 5.02326C16.7453 5.02326 16.5466 5.13488 16.2484 5.13488L11.0807 7.5907V12.8372H13.0683V9.04186L14.8571 8.26047L13.2671 17.3023L8.39752 16.186L8 18.4186L14.9565 19.9814Z" fill="black"/>
</svg>
