<svg width="24" height="24" viewBox="0 0 24 24" fill="none" xmlns="http://www.w3.org/2000/svg">
<path d="M23.8107 22.8138L17.7704 16.7735C19.4929 14.7927 20.379 12.2204 20.2419 9.59898C20.1048 6.97755 18.9553 4.51174 17.0356 2.72134C15.1159 0.930945 12.5761 -0.044174 9.95149 0.00153749C7.32688 0.047249 4.82254 1.11022 2.96638 2.96638C1.11022 4.82254 0.047249 7.32688 0.00153749 9.95149C-0.044174 12.5761 0.930945 15.1159 2.72134 17.0356C4.51174 18.9553 6.97755 20.1048 9.59898 20.2419C12.2204 20.379 14.7927 19.4929 16.7735 17.7704L22.8138 23.8107C22.9475 23.9353 23.1243 24.0031 23.3071 23.9999C23.4898 23.9967 23.6642 23.9226 23.7934 23.7934C23.9226 23.6642 23.9967 23.4898 23.9999 23.3071C24.0031 23.1243 23.9353 22.9475 23.8107 22.8138ZM1.44594 10.1454C1.44594 8.42484 1.95616 6.74288 2.91207 5.31225C3.86798 3.88163 5.22666 2.76659 6.81628 2.10815C8.40591 1.44971 10.1551 1.27743 11.8426 1.6131C13.5302 1.94877 15.0803 2.77732 16.2969 3.99396C17.5135 5.21061 18.3421 6.76071 18.6778 8.44825C19.0134 10.1358 18.8412 11.885 18.1827 13.4746C17.5243 15.0642 16.4092 16.4229 14.9786 17.3788C13.548 18.3347 11.866 18.8449 10.1454 18.8449C7.83904 18.8421 5.62792 17.9247 3.99706 16.2938C2.36619 14.6629 1.44874 12.4518 1.44594 10.1454Z" fill="black"/>
</svg>
