<svg width="30" height="30" viewBox="0 0 20 20" fill="none" xmlns="http://www.w3.org/2000/svg">
<g clip-path="url(#clip0_282_151)">
<path d="M10 20C15.5228 20 20 15.5228 20 10C20 4.47715 15.5228 0 10 0C4.47715 0 0 4.47715 0 10C0 15.5228 4.47715 20 10 20Z" fill="url(#paint0_linear_282_151)"/>
<path fill-rule="evenodd" clip-rule="evenodd" d="M4.52658 9.89444C7.44178 8.62433 9.38571 7.787 10.3584 7.38244C13.1355 6.22735 13.7125 6.0267 14.0886 6.02007C14.1714 6.01861 14.3563 6.03912 14.4761 6.13633C14.5773 6.21842 14.6051 6.32932 14.6185 6.40715C14.6318 6.48498 14.6484 6.66228 14.6352 6.80081C14.4847 8.38205 13.8335 12.2193 13.5022 13.9903C13.362 14.7397 13.086 14.991 12.8188 15.0155C12.2381 15.069 11.7971 14.6318 11.2347 14.2631C10.3545 13.6861 9.85733 13.327 9.00301 12.764C8.0157 12.1134 8.65573 11.7558 9.2184 11.1714C9.36565 11.0184 11.9243 8.69113 11.9738 8.48001C11.98 8.4536 11.9858 8.35518 11.9273 8.30321C11.8688 8.25124 11.7825 8.26901 11.7203 8.28314C11.632 8.30318 10.226 9.23251 7.5022 11.0711C7.10311 11.3452 6.74162 11.4787 6.41774 11.4717C6.06069 11.464 5.37386 11.2698 4.86328 11.1038C4.23703 10.9003 3.7393 10.7927 3.78264 10.4469C3.80521 10.2669 4.05319 10.0827 4.52658 9.89444Z" fill="white"/>
</g>
<defs>
<linearGradient id="paint0_linear_282_151" x1="1000" y1="0" x2="1000" y2="1985.17" gradientUnits="userSpaceOnUse">
<stop stop-color="#2AABEE"/>
<stop offset="1" stop-color="#229ED9"/>
</linearGradient>
<clipPath id="clip0_282_151">
<rect width="20" height="20" fill="white"/>
</clipPath>
</defs>
</svg>
