<svg width="91" height="105" viewBox="0 0 91 105" fill="none" xmlns="http://www.w3.org/2000/svg">
<path d="M34.6865 58.9188H34.5313C30.6399 58.9188 26.924 58.3235 23.522 57.2405L13.9438 61.7467L15.1318 53.1587C8.92175 48.8742 5 42.5598 5 35.5267C5 22.5972 18.2233 12.125 34.5313 12.125C48.6185 12.125 60.4006 19.9403 63.3538 30.3967C62.6796 30.3553 62.0043 30.3342 61.3288 30.3333C46.6003 30.3333 33.6875 39.9505 33.6875 52.8483C33.6875 54.97 34.0385 57.003 34.6865 58.9188ZM25.25 30.3333C26.1451 30.3333 27.0036 29.9997 27.6365 29.4058C28.2694 28.812 28.625 28.0065 28.625 27.1667C28.625 26.3268 28.2694 25.5214 27.6365 24.9275C27.0036 24.3336 26.1451 24 25.25 24C24.3549 24 23.4965 24.3336 22.8635 24.9275C22.2306 25.5214 21.875 26.3268 21.875 27.1667C21.875 28.0065 22.2306 28.812 22.8635 29.4058C23.4965 29.9997 24.3549 30.3333 25.25 30.3333ZM43.8125 30.3555C44.7076 30.3555 45.5661 30.0219 46.199 29.428C46.8319 28.8341 47.1875 28.0287 47.1875 27.1888C47.1875 26.349 46.8319 25.5435 46.199 24.9497C45.5661 24.3558 44.7076 24.0222 43.8125 24.0222C42.9174 24.0222 42.059 24.3558 41.426 24.9497C40.7931 25.5435 40.4375 26.349 40.4375 27.1888C40.4375 28.0287 40.7931 28.8341 41.426 29.428C42.059 30.0219 42.9174 30.3555 43.8125 30.3555Z" fill="#FF0000"/>
<path d="M78.8248 66.8133C83.2561 63.2825 86 58.3995 86 53.0067C86 42.2337 75.0448 33.5 61.5312 33.5C48.0177 33.5 37.0625 42.2337 37.0625 53.0098C37.0625 63.786 48.0177 72.5197 61.5312 72.5197C64.7375 72.5197 67.7953 72.0288 70.5965 71.1358L78.8248 75.5913V66.8133ZM53.2963 49.8337C52.4011 49.8337 51.5427 49.5 50.9098 48.9062C50.2768 48.3123 49.9213 47.5069 49.9213 46.667C49.9213 45.8271 50.2768 45.0217 50.9098 44.4278C51.5427 43.834 52.4011 43.5003 53.2963 43.5003C54.1914 43.5003 55.0498 43.834 55.6827 44.4278C56.3157 45.0217 56.6713 45.8271 56.6713 46.667C56.6713 47.5069 56.3157 48.3123 55.6827 48.9062C55.0498 49.5 54.1914 49.8337 53.2963 49.8337ZM69.7663 49.8337C68.8711 49.8337 68.0127 49.5 67.3798 48.9062C66.7468 48.3123 66.3913 47.5069 66.3913 46.667C66.3913 45.8271 66.7468 45.0217 67.3798 44.4278C68.0127 43.834 68.8711 43.5003 69.7663 43.5003C70.6614 43.5003 71.5198 43.834 72.1527 44.4278C72.7857 45.0217 73.1413 45.8271 73.1413 46.667C73.1413 47.5069 72.7857 48.3123 72.1527 48.9062C71.5198 49.5 70.6614 49.8337 69.7663 49.8337Z" fill="#01B0F1"/>
<path d="M15.868 95.14C15.056 95.14 14.3747 95.0187 13.824 94.776C13.2733 94.524 12.8487 94.202 12.55 93.81C12.2607 93.4087 12.1067 92.984 12.088 92.536C12.088 92.4613 12.116 92.396 12.172 92.34C12.2373 92.2747 12.312 92.242 12.396 92.242H13.11C13.222 92.242 13.306 92.27 13.362 92.326C13.418 92.382 13.4553 92.4473 13.474 92.522C13.5207 92.746 13.6327 92.97 13.81 93.194C13.9967 93.4087 14.2533 93.5907 14.58 93.74C14.916 93.88 15.3453 93.95 15.868 93.95C16.6707 93.95 17.2587 93.81 17.632 93.53C18.0147 93.2407 18.206 92.858 18.206 92.382C18.206 92.0553 18.1033 91.794 17.898 91.598C17.702 91.3927 17.3987 91.2107 16.988 91.052C16.5773 90.8933 16.0453 90.7207 15.392 90.534C14.7107 90.338 14.146 90.1233 13.698 89.89C13.25 89.6567 12.914 89.3673 12.69 89.022C12.4753 88.6767 12.368 88.238 12.368 87.706C12.368 87.202 12.5033 86.754 12.774 86.362C13.0447 85.9607 13.432 85.6433 13.936 85.41C14.4493 85.1767 15.07 85.06 15.798 85.06C16.3767 85.06 16.8807 85.1393 17.31 85.298C17.7487 85.4473 18.1127 85.6527 18.402 85.914C18.6913 86.166 18.9107 86.4413 19.06 86.74C19.2093 87.0293 19.2887 87.314 19.298 87.594C19.298 87.6593 19.2747 87.7247 19.228 87.79C19.1813 87.846 19.1067 87.874 19.004 87.874H18.262C18.1967 87.874 18.1267 87.8553 18.052 87.818C17.9867 87.7807 17.9353 87.7107 17.898 87.608C17.842 87.2253 17.6273 86.9033 17.254 86.642C16.8807 86.3807 16.3953 86.25 15.798 86.25C15.1913 86.25 14.6967 86.3667 14.314 86.6C13.9407 86.8333 13.754 87.1973 13.754 87.692C13.754 88.0093 13.8427 88.2753 14.02 88.49C14.1973 88.6953 14.4773 88.8773 14.86 89.036C15.2427 89.1947 15.742 89.3627 16.358 89.54C17.1047 89.7453 17.716 89.9647 18.192 90.198C18.668 90.422 19.018 90.7067 19.242 91.052C19.4753 91.388 19.592 91.822 19.592 92.354C19.592 92.942 19.438 93.446 19.13 93.866C18.822 94.2767 18.388 94.594 17.828 94.818C17.2773 95.0327 16.624 95.14 15.868 95.14ZM24.087 95C23.5643 95 23.1397 94.902 22.813 94.706C22.4863 94.5007 22.2483 94.216 22.099 93.852C21.9497 93.4787 21.875 93.04 21.875 92.536V88.84H20.783C20.6897 88.84 20.6103 88.812 20.545 88.756C20.489 88.6907 20.461 88.6113 20.461 88.518V88.042C20.461 87.9487 20.489 87.874 20.545 87.818C20.6103 87.7527 20.6897 87.72 20.783 87.72H21.875V85.382C21.875 85.2887 21.903 85.214 21.959 85.158C22.0243 85.0927 22.1037 85.06 22.197 85.06H22.855C22.9483 85.06 23.023 85.0927 23.079 85.158C23.1443 85.214 23.177 85.2887 23.177 85.382V87.72H24.913C25.0063 87.72 25.081 87.7527 25.137 87.818C25.2023 87.874 25.235 87.9487 25.235 88.042V88.518C25.235 88.6113 25.2023 88.6907 25.137 88.756C25.081 88.812 25.0063 88.84 24.913 88.84H23.177V92.438C23.177 92.8767 23.2517 93.222 23.401 93.474C23.5503 93.726 23.8163 93.852 24.199 93.852H25.053C25.1463 93.852 25.221 93.8847 25.277 93.95C25.3423 94.006 25.375 94.0807 25.375 94.174V94.678C25.375 94.7713 25.3423 94.8507 25.277 94.916C25.221 94.972 25.1463 95 25.053 95H24.087ZM28.7437 95.14C28.2771 95.14 27.8524 95.0467 27.4697 94.86C27.0871 94.6733 26.7791 94.4213 26.5457 94.104C26.3124 93.7867 26.1957 93.4273 26.1957 93.026C26.1957 92.382 26.4571 91.8687 26.9797 91.486C27.5024 91.1033 28.1837 90.8513 29.0237 90.73L31.1097 90.436V90.03C31.1097 89.582 30.9791 89.232 30.7177 88.98C30.4657 88.728 30.0504 88.602 29.4717 88.602C29.0517 88.602 28.7111 88.686 28.4497 88.854C28.1977 89.022 28.0204 89.2367 27.9177 89.498C27.8617 89.638 27.7637 89.708 27.6237 89.708H26.9937C26.8911 89.708 26.8117 89.68 26.7557 89.624C26.7091 89.5587 26.6857 89.484 26.6857 89.4C26.6857 89.26 26.7371 89.0873 26.8397 88.882C26.9517 88.6767 27.1197 88.476 27.3437 88.28C27.5677 88.084 27.8524 87.9207 28.1977 87.79C28.5524 87.65 28.9817 87.58 29.4857 87.58C30.0457 87.58 30.5171 87.6547 30.8997 87.804C31.2824 87.944 31.5811 88.1353 31.7957 88.378C32.0197 88.6207 32.1784 88.896 32.2717 89.204C32.3744 89.512 32.4257 89.8247 32.4257 90.142V94.678C32.4257 94.7713 32.3931 94.8507 32.3277 94.916C32.2717 94.972 32.1971 95 32.1037 95H31.4597C31.3571 95 31.2777 94.972 31.2217 94.916C31.1657 94.8507 31.1377 94.7713 31.1377 94.678V94.076C31.0164 94.244 30.8531 94.412 30.6477 94.58C30.4424 94.7387 30.1857 94.874 29.8777 94.986C29.5697 95.0887 29.1917 95.14 28.7437 95.14ZM29.0377 94.09C29.4204 94.09 29.7704 94.0107 30.0877 93.852C30.4051 93.684 30.6524 93.4273 30.8297 93.082C31.0164 92.7367 31.1097 92.3027 31.1097 91.78V91.388L29.4857 91.626C28.8231 91.7193 28.3237 91.878 27.9877 92.102C27.6517 92.3167 27.4837 92.592 27.4837 92.928C27.4837 93.1893 27.5584 93.4087 27.7077 93.586C27.8664 93.754 28.0624 93.88 28.2957 93.964C28.5384 94.048 28.7857 94.09 29.0377 94.09ZM34.7603 95C34.667 95 34.5877 94.972 34.5223 94.916C34.4663 94.8507 34.4383 94.7713 34.4383 94.678V88.056C34.4383 87.9627 34.4663 87.8833 34.5223 87.818C34.5877 87.7527 34.667 87.72 34.7603 87.72H35.4043C35.4977 87.72 35.577 87.7527 35.6423 87.818C35.7077 87.8833 35.7403 87.9627 35.7403 88.056V88.672C35.927 88.3547 36.1837 88.1167 36.5103 87.958C36.837 87.7993 37.229 87.72 37.6863 87.72H38.2463C38.3397 87.72 38.4143 87.7527 38.4703 87.818C38.5263 87.874 38.5543 87.9487 38.5543 88.042V88.616C38.5543 88.7093 38.5263 88.784 38.4703 88.84C38.4143 88.896 38.3397 88.924 38.2463 88.924H37.4063C36.9023 88.924 36.5057 89.0733 36.2163 89.372C35.927 89.6613 35.7823 90.058 35.7823 90.562V94.678C35.7823 94.7713 35.7497 94.8507 35.6843 94.916C35.619 94.972 35.5397 95 35.4463 95H34.7603ZM42.5987 95C42.076 95 41.6514 94.902 41.3247 94.706C40.998 94.5007 40.76 94.216 40.6107 93.852C40.4614 93.4787 40.3867 93.04 40.3867 92.536V88.84H39.2947C39.2014 88.84 39.122 88.812 39.0567 88.756C39.0007 88.6907 38.9727 88.6113 38.9727 88.518V88.042C38.9727 87.9487 39.0007 87.874 39.0567 87.818C39.122 87.7527 39.2014 87.72 39.2947 87.72H40.3867V85.382C40.3867 85.2887 40.4147 85.214 40.4707 85.158C40.536 85.0927 40.6154 85.06 40.7087 85.06H41.3667C41.46 85.06 41.5347 85.0927 41.5907 85.158C41.656 85.214 41.6887 85.2887 41.6887 85.382V87.72H43.4247C43.518 87.72 43.5927 87.7527 43.6487 87.818C43.714 87.874 43.7467 87.9487 43.7467 88.042V88.518C43.7467 88.6113 43.714 88.6907 43.6487 88.756C43.5927 88.812 43.518 88.84 43.4247 88.84H41.6887V92.438C41.6887 92.8767 41.7634 93.222 41.9127 93.474C42.062 93.726 42.328 93.852 42.7107 93.852H43.5647C43.658 93.852 43.7327 93.8847 43.7887 93.95C43.854 94.006 43.8867 94.0807 43.8867 94.174V94.678C43.8867 94.7713 43.854 94.8507 43.7887 94.916C43.7327 94.972 43.658 95 43.5647 95H42.5987ZM52.3671 95.14C51.5084 95.14 50.7944 94.9813 50.2251 94.664C49.6651 94.3467 49.2404 93.9033 48.9511 93.334C48.6618 92.7647 48.5031 92.102 48.4751 91.346C48.4658 90.9633 48.4611 90.5527 48.4611 90.114C48.4611 89.6753 48.4658 89.2553 48.4751 88.854C48.5031 88.098 48.6618 87.4353 48.9511 86.866C49.2404 86.2967 49.6651 85.8533 50.2251 85.536C50.7944 85.2187 51.5084 85.06 52.3671 85.06C53.0111 85.06 53.5758 85.1487 54.0611 85.326C54.5464 85.5033 54.9478 85.7413 55.2651 86.04C55.5918 86.3387 55.8391 86.6747 56.0071 87.048C56.1751 87.412 56.2684 87.79 56.2871 88.182C56.2964 88.266 56.2684 88.336 56.2031 88.392C56.1471 88.448 56.0771 88.476 55.9931 88.476H55.2231C55.1391 88.476 55.0644 88.4527 54.9991 88.406C54.9431 88.3593 54.9011 88.2753 54.8731 88.154C54.7144 87.426 54.4158 86.9267 53.9771 86.656C53.5478 86.3853 53.0064 86.25 52.3531 86.25C51.6064 86.25 51.0138 86.4647 50.5751 86.894C50.1364 87.314 49.8984 87.9907 49.8611 88.924C49.8331 89.6893 49.8331 90.4733 49.8611 91.276C49.8984 92.2093 50.1364 92.8907 50.5751 93.32C51.0138 93.74 51.6064 93.95 52.3531 93.95C53.0064 93.95 53.5478 93.8147 53.9771 93.544C54.4158 93.2733 54.7144 92.774 54.8731 92.046C54.9011 91.9247 54.9431 91.8407 54.9991 91.794C55.0644 91.7473 55.1391 91.724 55.2231 91.724H55.9931C56.0771 91.724 56.1471 91.752 56.2031 91.808C56.2684 91.864 56.2964 91.934 56.2871 92.018C56.2684 92.41 56.1751 92.7927 56.0071 93.166C55.8391 93.53 55.5918 93.8613 55.2651 94.16C54.9478 94.4587 54.5464 94.6967 54.0611 94.874C53.5758 95.0513 53.0111 95.14 52.3671 95.14ZM58.3173 95C58.224 95 58.1446 94.972 58.0793 94.916C58.0233 94.8507 57.9953 94.7713 57.9953 94.678V85.382C57.9953 85.2887 58.0233 85.214 58.0793 85.158C58.1446 85.0927 58.224 85.06 58.3173 85.06H59.0173C59.12 85.06 59.1993 85.0927 59.2553 85.158C59.3113 85.214 59.3393 85.2887 59.3393 85.382V88.644C59.5913 88.3267 59.8993 88.07 60.2633 87.874C60.6273 87.678 61.0893 87.58 61.6493 87.58C62.256 87.58 62.7693 87.7153 63.1893 87.986C63.6186 88.2473 63.9406 88.616 64.1553 89.092C64.3793 89.5587 64.4913 90.1047 64.4913 90.73V94.678C64.4913 94.7713 64.4633 94.8507 64.4073 94.916C64.3513 94.972 64.272 95 64.1693 95H63.4693C63.376 95 63.2966 94.972 63.2313 94.916C63.1753 94.8507 63.1473 94.7713 63.1473 94.678V90.8C63.1473 90.1467 62.9886 89.638 62.6713 89.274C62.354 88.9007 61.8873 88.714 61.2713 88.714C60.6926 88.714 60.226 88.9007 59.8713 89.274C59.5166 89.638 59.3393 90.1467 59.3393 90.8V94.678C59.3393 94.7713 59.3113 94.8507 59.2553 94.916C59.1993 94.972 59.12 95 59.0173 95H58.3173ZM68.5426 95.14C68.0759 95.14 67.6512 95.0467 67.2686 94.86C66.8859 94.6733 66.5779 94.4213 66.3446 94.104C66.1112 93.7867 65.9946 93.4273 65.9946 93.026C65.9946 92.382 66.2559 91.8687 66.7786 91.486C67.3012 91.1033 67.9826 90.8513 68.8226 90.73L70.9086 90.436V90.03C70.9086 89.582 70.7779 89.232 70.5166 88.98C70.2646 88.728 69.8492 88.602 69.2706 88.602C68.8506 88.602 68.5099 88.686 68.2486 88.854C67.9966 89.022 67.8192 89.2367 67.7166 89.498C67.6606 89.638 67.5626 89.708 67.4226 89.708H66.7926C66.6899 89.708 66.6106 89.68 66.5546 89.624C66.5079 89.5587 66.4846 89.484 66.4846 89.4C66.4846 89.26 66.5359 89.0873 66.6386 88.882C66.7506 88.6767 66.9186 88.476 67.1426 88.28C67.3666 88.084 67.6512 87.9207 67.9966 87.79C68.3512 87.65 68.7806 87.58 69.2846 87.58C69.8446 87.58 70.3159 87.6547 70.6986 87.804C71.0812 87.944 71.3799 88.1353 71.5946 88.378C71.8186 88.6207 71.9772 88.896 72.0706 89.204C72.1732 89.512 72.2246 89.8247 72.2246 90.142V94.678C72.2246 94.7713 72.1919 94.8507 72.1266 94.916C72.0706 94.972 71.9959 95 71.9026 95H71.2586C71.1559 95 71.0766 94.972 71.0206 94.916C70.9646 94.8507 70.9366 94.7713 70.9366 94.678V94.076C70.8152 94.244 70.6519 94.412 70.4466 94.58C70.2412 94.7387 69.9846 94.874 69.6766 94.986C69.3686 95.0887 68.9906 95.14 68.5426 95.14ZM68.8366 94.09C69.2192 94.09 69.5692 94.0107 69.8866 93.852C70.2039 93.684 70.4512 93.4273 70.6286 93.082C70.8152 92.7367 70.9086 92.3027 70.9086 91.78V91.388L69.2846 91.626C68.6219 91.7193 68.1226 91.878 67.7866 92.102C67.4506 92.3167 67.2826 92.592 67.2826 92.928C67.2826 93.1893 67.3572 93.4087 67.5066 93.586C67.6652 93.754 67.8612 93.88 68.0946 93.964C68.3372 94.048 68.5846 94.09 68.8366 94.09ZM77.0108 95C76.4881 95 76.0635 94.902 75.7368 94.706C75.4101 94.5007 75.1721 94.216 75.0228 93.852C74.8735 93.4787 74.7988 93.04 74.7988 92.536V88.84H73.7068C73.6135 88.84 73.5341 88.812 73.4688 88.756C73.4128 88.6907 73.3848 88.6113 73.3848 88.518V88.042C73.3848 87.9487 73.4128 87.874 73.4688 87.818C73.5341 87.7527 73.6135 87.72 73.7068 87.72H74.7988V85.382C74.7988 85.2887 74.8268 85.214 74.8828 85.158C74.9481 85.0927 75.0275 85.06 75.1208 85.06H75.7788C75.8721 85.06 75.9468 85.0927 76.0028 85.158C76.0681 85.214 76.1008 85.2887 76.1008 85.382V87.72H77.8368C77.9301 87.72 78.0048 87.7527 78.0608 87.818C78.1261 87.874 78.1588 87.9487 78.1588 88.042V88.518C78.1588 88.6113 78.1261 88.6907 78.0608 88.756C78.0048 88.812 77.9301 88.84 77.8368 88.84H76.1008V92.438C76.1008 92.8767 76.1755 93.222 76.3248 93.474C76.4741 93.726 76.7401 93.852 77.1228 93.852H77.9768C78.0701 93.852 78.1448 93.8847 78.2008 93.95C78.2661 94.006 78.2988 94.0807 78.2988 94.174V94.678C78.2988 94.7713 78.2661 94.8507 78.2008 94.916C78.1448 94.972 78.0701 95 77.9768 95H77.0108Z" fill="black"/>
</svg>
