<svg width="38" height="38" viewBox="0 0 38 38" fill="none" stroke="black" xmlns="http://www.w3.org/2000/svg">
<path d="M11 32.5H9C4 32.5 1 28 1 23.5C1 19 4 14.5 9 14.5M9 14.5C11 14.5 12 15.625 12 15.625M9 14.5L8.99997 12.25C8.99997 6.625 13 1 19 1C25 1 29 6.625 29 12.25C29 13.375 29 14.5 29 14.5M27 32.5H29C34 32.5 37 28 37 23.5C37 19 34 14.5 29 14.5M29 14.5C27 14.5 26 15.625 26 15.625M19 37V23.5M23.0001 25.75L19.0001 21.25L15.0001 25.75" stroke-width="2" stroke-linecap="round" stroke-linejoin="round"/>
</svg>
